<svg data-v-fde0c5aa="" xmlns="http://www.w3.org/2000/svg" viewBox="0 0 300 300" class="iconLeft"><!----><defs data-v-fde0c5aa=""><linearGradient data-v-fde0c5aa="" gradientTransform="rotate(25)" id="220c724b-6cd2-4704-a9b8-af170f8bca95" x1="0%" y1="0%" x2="100%" y2="0%"><stop data-v-fde0c5aa="" offset="0%" stop-color="#395ECA" stop-opacity="1"></stop><stop data-v-fde0c5aa="" offset="100%" stop-color="#848BD8" stop-opacity="1"></stop></linearGradient></defs><rect data-v-fde0c5aa="" fill="url(#220c724b-6cd2-4704-a9b8-af170f8bca95)" x="0" y="0" width="300px" height="300px" class="logo-background-square"></rect><defs data-v-fde0c5aa=""><!----></defs><g data-v-fde0c5aa="" id="28b41a9f-57af-4e57-862b-8115453bfeee" fill="#ffffff" transform="matrix(4.787437438964844,0,0,4.787437438964844,146.72922680191908,83.35887008984542)"><path d="M4.42 7.24L4.42 7.24L4.66 7.25L4.66 7.25Q4.90 7.25 5.04 7.01L5.04 7.01L5.04 7.01Q5.15 6.71 5.87 6.71L5.87 6.71L5.87 6.71Q6.58 6.72 6.58 7.01L6.58 7.01L6.58 7.01Q6.58 7.06 6.26 7.38L6.26 7.38L6.26 7.38Q5.94 7.70 5.47 8.30L5.47 8.30L5.47 8.30Q5.01 8.89 4.76 9.49L4.76 9.49L4.76 9.49Q4.73 9.58 4.54 9.58L4.54 9.58L4.54 9.58Q4.35 9.58 4.24 9.40L4.24 9.40L4.24 9.40Q4.13 9.23 4.13 9.02L4.13 9.02L4.13 9.02Q4.13 8.82 4.18 8.67L4.18 8.67L4.18 8.67Q4.23 8.51 4.23 8.44L4.23 8.44L4.23 8.44Q4.23 8.18 3.93 8.18L3.93 8.18L3.93 8.18Q3.12 8.18 2.49 9.11L2.49 9.11L2.49 9.11Q1.86 10.04 1.86 10.81L1.86 10.81L1.86 10.81Q1.86 11.83 2.86 11.83L2.86 11.83L2.86 11.83Q3.46 11.83 3.91 11.55L3.91 11.55L3.91 11.55Q4.00 11.47 4.10 11.47L4.10 11.47L4.10 11.47Q4.26 11.47 4.26 11.62L4.26 11.62L4.26 11.62Q4.26 11.98 3.60 12.47L3.60 12.47L3.60 12.47Q2.94 12.95 2.02 12.95L2.02 12.95L2.02 12.95Q1.11 12.95 0.76 12.50L0.76 12.50L0.76 12.50Q0.42 12.04 0.42 11.49L0.42 11.49L0.42 11.49Q0.42 10.93 0.72 10.23L0.72 10.23L0.72 10.23Q1.02 9.53 1.52 8.86L1.52 8.86L1.52 8.86Q2.02 8.18 2.80 7.71L2.80 7.71L2.80 7.71Q3.58 7.24 4.42 7.24ZM1.86 21.13L1.86 21.13L1.86 21.13Q1.27 21.13 1.27 20.15L1.27 20.15L1.27 20.15Q1.27 19.17 1.85 17.97L1.85 17.97L1.85 17.97Q2.42 16.77 3.23 15.77L3.23 15.77L3.23 15.77Q4.03 14.77 4.94 14.07L4.94 14.07L4.94 14.07Q5.85 13.37 6.47 13.37L6.47 13.37L6.47 13.37Q6.68 13.37 6.68 13.47L6.68 13.47L6.68 13.47Q6.68 13.57 6.51 13.65L6.51 13.65L6.51 13.65Q5.98 13.93 5.16 14.85L5.16 14.85L5.16 14.85Q4.34 15.76 3.67 16.95L3.67 16.95L3.67 16.95Q3.01 18.13 3.01 18.94L3.01 18.94L3.01 18.94Q3.01 19.29 3.26 19.29L3.26 19.29L3.26 19.29Q3.75 19.29 4.75 17.92L4.75 17.92L4.75 17.92Q6.36 15.72 8.04 12.32L8.04 12.32L8.04 12.32Q8.54 11.31 8.54 11.12L8.54 11.12L8.54 11.12Q8.54 10.92 8.43 10.92L8.43 10.92L8.43 10.92Q8.29 10.92 8.15 11.06L8.15 11.06L8.15 11.06Q6.58 12.40 5.71 12.40L5.71 12.40L5.71 12.40Q5.08 12.40 5.08 11.73L5.08 11.73L5.08 11.73Q5.08 11.05 5.83 9.63L5.83 9.63L5.83 9.63Q6.58 8.20 7.35 7.43L7.35 7.43L7.35 7.43Q7.52 7.27 7.81 7.16L7.81 7.16L7.81 7.16Q8.11 7.06 8.42 7.06L8.42 7.06L8.42 7.06Q8.74 7.06 8.74 7.20L8.74 7.20L8.74 7.20Q8.74 7.25 8.29 7.84L8.29 7.84L8.29 7.84Q6.93 9.65 6.93 10.42L6.93 10.42L6.93 10.42Q6.93 10.75 7.22 10.75L7.22 10.75L7.22 10.75Q7.74 10.75 8.83 9.74L8.83 9.74L8.83 9.74Q9.91 8.74 10.72 7.38L10.72 7.38L10.72 7.38Q10.98 6.87 11.84 6.87L11.84 6.87L11.84 6.87Q12.26 6.87 12.26 7.04L12.26 7.04L12.26 7.04Q12.26 7.08 12.22 7.15L12.22 7.15L12.22 7.15Q10.86 9.39 9.74 11.47L9.74 11.47L9.74 11.47Q8.62 13.55 7.95 14.68L7.95 14.68L7.95 14.68Q7.27 15.81 6.43 17.02L6.43 17.02L6.43 17.02Q5.60 18.24 4.84 19.12L4.84 19.12L4.84 19.12Q4.07 19.99 3.28 20.56L3.28 20.56L3.28 20.56Q2.49 21.13 1.86 21.13ZM13.99 11.86L13.99 11.86L14.01 11.56L14.01 11.56Q14.01 11.45 13.93 11.45L13.93 11.45L13.93 11.45Q13.80 11.45 13.42 11.82L13.42 11.82L13.42 11.82Q13.03 12.18 12.45 12.55L12.45 12.55L12.45 12.55Q11.87 12.92 11.29 12.92L11.29 12.92L11.29 12.92Q10.71 12.92 10.71 12.07L10.71 12.07L10.71 12.07Q10.71 11.00 11.63 9.62L11.63 9.62L11.63 9.62Q12.11 8.92 12.73 8.32L12.73 8.32L12.73 8.32Q13.36 7.73 14.25 7.34L14.25 7.34L14.25 7.34Q15.15 6.96 16.13 6.96L16.13 6.96L16.13 6.96Q16.65 6.96 17.01 7.23L17.01 7.23L17.01 7.23Q17.37 7.50 17.37 7.90L17.37 7.90L17.37 7.90Q17.37 8.30 17.14 8.30L17.14 8.30L17.14 8.30Q17.01 8.30 16.80 8.15L16.80 8.15L16.80 8.15Q16.41 7.88 15.57 7.88L15.57 7.88L15.57 7.88Q14.46 7.88 13.48 8.88L13.48 8.88L13.48 8.88Q12.49 9.88 12.49 10.86L12.49 10.86L12.49 10.86Q12.49 10.99 12.57 11.10L12.57 11.10L12.57 11.10Q12.64 11.21 12.78 11.21L12.78 11.21L12.78 11.21Q13.20 11.21 13.86 10.63L13.86 10.63L13.86 10.63Q14.52 10.05 15.15 8.96L15.15 8.96L15.15 8.96Q15.19 8.83 15.46 8.72L15.46 8.72L15.46 8.72Q15.72 8.61 16.09 8.61L16.09 8.61L16.09 8.61Q16.60 8.65 16.60 8.83L16.60 8.83L16.60 8.83Q16.60 8.85 16.50 9.01L16.50 9.01L16.50 9.01Q16.39 9.17 16.13 9.59L16.13 9.59L16.13 9.59Q15.86 10.01 15.38 10.97L15.38 10.97L15.38 10.97Q14.90 11.93 14.81 12.49L14.81 12.49L14.81 12.49Q14.80 12.66 14.67 12.66L14.67 12.66L14.67 12.66Q13.99 12.66 13.99 11.86ZM20.08 12.95L20.08 12.95L20.08 12.95Q19.68 12.95 19.68 12.77L19.68 12.77L19.71 12.68L19.71 12.68Q20.55 11.42 21.15 10.26L21.15 10.26L21.15 10.26Q21.76 9.09 21.76 8.74L21.76 8.74L21.76 8.74Q21.76 8.62 21.70 8.56L21.70 8.56L21.70 8.56Q21.64 8.50 21.53 8.48L21.53 8.48L21.53 8.48Q20.99 8.48 20.07 9.18L20.07 9.18L20.07 9.18Q19.15 9.88 18.46 10.63L18.46 10.63L18.46 10.63Q17.77 11.37 17.43 11.84L17.43 11.84L17.43 11.84Q17.09 12.31 16.42 12.31L16.42 12.31L16.42 12.31Q16.06 12.31 16.06 12.12L16.06 12.12L16.06 12.12Q16.06 11.76 17.43 9.55L17.43 9.55L17.43 9.55Q18.80 7.35 19.25 7.18L19.25 7.18L19.25 7.18Q19.49 7.04 19.86 7.04L19.86 7.04L19.86 7.04Q20.23 7.04 20.23 7.19L20.23 7.19L20.23 7.19Q20.23 7.34 19.89 7.83L19.89 7.83L19.89 7.83Q19.56 8.32 19.56 8.46L19.56 8.46L19.56 8.46Q19.59 8.57 19.68 8.57L19.68 8.57L19.68 8.57Q19.77 8.57 19.84 8.51L19.84 8.51L19.84 8.51Q21.91 6.90 23.14 6.90L23.14 6.90L23.14 6.90Q23.66 6.90 23.66 7.50L23.66 7.50L23.66 7.50Q23.66 7.90 23.08 9.20L23.08 9.20L23.08 9.20Q22.50 10.50 21.61 11.73L21.61 11.73L21.61 11.73Q20.72 12.95 20.08 12.95Z"></path></g><defs data-v-fde0c5aa=""><!----></defs><g data-v-fde0c5aa="" id="1f78b0b3-e4f7-4631-b302-4729be4e0636" stroke="none" fill="#ffffff" transform="matrix(8.894686698913574,0,0,8.894686698913574,31.369534560092646,93.51255733376698)"><path d="M1.39 3.768a.3.3 0 0 0-.258.432 2.36 2.36 0 0 0 1.075 1.074 5.437 5.437 0 0 1 .468-.409.363.363 0 0 1 .32-.062 5.755 5.755 0 0 1 2.447 1.405.363.363 0 0 1 .03.487 4.056 4.056 0 0 1-.185.216 1.257 1.257 0 0 0 .203.134 1.339 1.339 0 0 1 .171-.098.363.363 0 0 1 .429.088 3.044 3.044 0 0 0 1.223.844.483.483 0 0 1 .312.417 27.086 27.086 0 0 0 1.423.806.162.162 0 0 0 .19-.258 78.976 78.976 0 0 1-1.085-1.106A12.822 12.822 0 0 1 6.85 6.12a2.045 2.045 0 0 0-.241-.293A7.008 7.008 0 0 0 1.39 3.768zm.4.573a.116.116 0 0 1 .125.122.116.116 0 1 1-.233 0 .116.116 0 0 1 .108-.122z"></path><path d="M7.21 4.68a5.708 5.708 0 0 0 .815-1.24 7.283 7.283 0 0 0-3.12-.172.062.062 0 0 1-.019-.122 7.407 7.407 0 0 1 3.187.179 5.265 5.265 0 0 0 .277-1.397 5.592 5.592 0 0 1-1.508.54 7.779 7.779 0 0 0-1.205.271.062.062 0 1 1-.037-.118 7.902 7.902 0 0 1 1.222-.276 5.47 5.47 0 0 0 1.534-.56 5.265 5.265 0 0 0-.1-1.208.059.059 0 0 0-.08-.043 2.157 2.157 0 0 0-.89.686.965.965 0 0 1-.223.212 5.9 5.9 0 0 1-1.202.633.54.54 0 0 0-.091.045 15.975 15.975 0 0 0-2.324 1.762 7.131 7.131 0 0 1 2.95 1.583 5.708 5.708 0 0 0 .731-.681 6.04 6.04 0 0 0-2.553-.865.062.062 0 0 1 .013-.123 6.164 6.164 0 0 1 2.623.894zM2.377 5.963a2.664 2.664 0 0 0-.638 1.917 7.902 7.902 0 0 0 1.15.142 1.142 1.142 0 0 0 .242-.014 2.211 2.211 0 0 1-.232-.824 4.365 4.365 0 0 1 0-1.523.062.062 0 1 1 .121.022 4.241 4.241 0 0 0 0 1.485 2.088 2.088 0 0 0 .235.813 3.933 3.933 0 0 0 1.69-.904 2.625 2.625 0 0 1-1.068-.75 5.571 5.571 0 0 1-.624-.919.062.062 0 0 1 .109-.059 5.448 5.448 0 0 0 .61.898 2.502 2.502 0 0 0 1.073.735 3.933 3.933 0 0 0 .33-.364.24.24 0 0 0-.021-.32A5.631 5.631 0 0 0 2.96 4.921a.24.24 0 0 0-.212.04A5.313 5.313 0 0 0 .983 7.43a.24.24 0 0 0 .162.308 7.902 7.902 0 0 0 .467.116 2.787 2.787 0 0 1 .67-1.972.062.062 0 0 1 .093.08zM7.712 5.658a3.065 3.065 0 0 0-.834.29 2.169 2.169 0 0 1 .075.103A12.699 12.699 0 0 0 8.08 7.478a4.097 4.097 0 0 0 .273-1.259.54.54 0 0 0-.641-.56zM10.681 12.147a1.915 1.915 0 0 0-.27-1.268 6.58 6.58 0 0 1-.806-1.362.122.122 0 0 1 .163-.16 2.704 2.704 0 0 0 1.337.236 1.312 1.312 0 0 1 .585.136.028.028 0 0 0 .032-.046 3.54 3.54 0 0 0-2.468-.996 78.852 78.852 0 0 0 .071.07.285.285 0 0 1-.335.455 27.21 27.21 0 0 1-.158-.084 5.513 5.513 0 0 0 1.803 3.037.028.028 0 0 0 .046-.018zM5.602 8.818a1.927 1.927 0 0 0 1.738-.185.36.36 0 0 0-.07-.638 3.168 3.168 0 0 1-1.272-.879.24.24 0 0 0-.283-.058 1.215 1.215 0 0 0-.626.703.818.818 0 0 0-.043.752.877.877 0 0 0 .557.305z"></path></g><!----></svg>