<svg data-v-fde0c5aa="" xmlns="http://www.w3.org/2000/svg" viewBox="0 0 300 300" class="font"><!----><defs data-v-fde0c5aa=""><linearGradient data-v-fde0c5aa="" gradientTransform="rotate(25)" id="8fbfef53-987c-4763-9dd6-bade6823d5dc" x1="0%" y1="0%" x2="100%" y2="0%"><stop data-v-fde0c5aa="" offset="0%" stop-color="#395ECA" stop-opacity="1"></stop><stop data-v-fde0c5aa="" offset="100%" stop-color="#848BD8" stop-opacity="1"></stop></linearGradient></defs><rect data-v-fde0c5aa="" fill="url(#8fbfef53-987c-4763-9dd6-bade6823d5dc)" x="0" y="0" width="300px" height="300px" class="logo-background-square"></rect><defs data-v-fde0c5aa=""><!----></defs><g data-v-fde0c5aa="" id="83e779b0-0530-4e55-a64d-4db250a7cd46" fill="#ffffff" transform="matrix(9.466437339782715,0,0,9.466437339782715,36.024096470518636,18.22719698619217)"><path d="M4.42 7.24L4.42 7.24L4.66 7.25L4.66 7.25Q4.90 7.25 5.04 7.01L5.04 7.01L5.04 7.01Q5.15 6.71 5.87 6.71L5.87 6.71L5.87 6.71Q6.58 6.72 6.58 7.01L6.58 7.01L6.58 7.01Q6.58 7.06 6.26 7.38L6.26 7.38L6.26 7.38Q5.94 7.70 5.47 8.30L5.47 8.30L5.47 8.30Q5.01 8.89 4.76 9.49L4.76 9.49L4.76 9.49Q4.73 9.58 4.54 9.58L4.54 9.58L4.54 9.58Q4.35 9.58 4.24 9.40L4.24 9.40L4.24 9.40Q4.13 9.23 4.13 9.02L4.13 9.02L4.13 9.02Q4.13 8.82 4.18 8.67L4.18 8.67L4.18 8.67Q4.23 8.51 4.23 8.44L4.23 8.44L4.23 8.44Q4.23 8.18 3.93 8.18L3.93 8.18L3.93 8.18Q3.12 8.18 2.49 9.11L2.49 9.11L2.49 9.11Q1.86 10.04 1.86 10.81L1.86 10.81L1.86 10.81Q1.86 11.83 2.86 11.83L2.86 11.83L2.86 11.83Q3.46 11.83 3.91 11.55L3.91 11.55L3.91 11.55Q4.00 11.47 4.10 11.47L4.10 11.47L4.10 11.47Q4.26 11.47 4.26 11.62L4.26 11.62L4.26 11.62Q4.26 11.98 3.60 12.47L3.60 12.47L3.60 12.47Q2.94 12.95 2.02 12.95L2.02 12.95L2.02 12.95Q1.11 12.95 0.76 12.50L0.76 12.50L0.76 12.50Q0.42 12.04 0.42 11.49L0.42 11.49L0.42 11.49Q0.42 10.93 0.72 10.23L0.72 10.23L0.72 10.23Q1.02 9.53 1.52 8.86L1.52 8.86L1.52 8.86Q2.02 8.18 2.80 7.71L2.80 7.71L2.80 7.71Q3.58 7.24 4.42 7.24ZM1.86 21.13L1.86 21.13L1.86 21.13Q1.27 21.13 1.27 20.15L1.27 20.15L1.27 20.15Q1.27 19.17 1.85 17.97L1.85 17.97L1.85 17.97Q2.42 16.77 3.23 15.77L3.23 15.77L3.23 15.77Q4.03 14.77 4.94 14.07L4.94 14.07L4.94 14.07Q5.85 13.37 6.47 13.37L6.47 13.37L6.47 13.37Q6.68 13.37 6.68 13.47L6.68 13.47L6.68 13.47Q6.68 13.57 6.51 13.65L6.51 13.65L6.51 13.65Q5.98 13.93 5.16 14.85L5.16 14.85L5.16 14.85Q4.34 15.76 3.67 16.95L3.67 16.95L3.67 16.95Q3.01 18.13 3.01 18.94L3.01 18.94L3.01 18.94Q3.01 19.29 3.26 19.29L3.26 19.29L3.26 19.29Q3.75 19.29 4.75 17.92L4.75 17.92L4.75 17.92Q6.36 15.72 8.04 12.32L8.04 12.32L8.04 12.32Q8.54 11.31 8.54 11.12L8.54 11.12L8.54 11.12Q8.54 10.92 8.43 10.92L8.43 10.92L8.43 10.92Q8.29 10.92 8.15 11.06L8.15 11.06L8.15 11.06Q6.58 12.40 5.71 12.40L5.71 12.40L5.71 12.40Q5.08 12.40 5.08 11.73L5.08 11.73L5.08 11.73Q5.08 11.05 5.83 9.63L5.83 9.63L5.83 9.63Q6.58 8.20 7.35 7.43L7.35 7.43L7.35 7.43Q7.52 7.27 7.81 7.16L7.81 7.16L7.81 7.16Q8.11 7.06 8.42 7.06L8.42 7.06L8.42 7.06Q8.74 7.06 8.74 7.20L8.74 7.20L8.74 7.20Q8.74 7.25 8.29 7.84L8.29 7.84L8.29 7.84Q6.93 9.65 6.93 10.42L6.93 10.42L6.93 10.42Q6.93 10.75 7.22 10.75L7.22 10.75L7.22 10.75Q7.74 10.75 8.83 9.74L8.83 9.74L8.83 9.74Q9.91 8.74 10.72 7.38L10.72 7.38L10.72 7.38Q10.98 6.87 11.84 6.87L11.84 6.87L11.84 6.87Q12.26 6.87 12.26 7.04L12.26 7.04L12.26 7.04Q12.26 7.08 12.22 7.15L12.22 7.15L12.22 7.15Q10.86 9.39 9.74 11.47L9.74 11.47L9.74 11.47Q8.62 13.55 7.95 14.68L7.95 14.68L7.95 14.68Q7.27 15.81 6.43 17.02L6.43 17.02L6.43 17.02Q5.60 18.24 4.84 19.12L4.84 19.12L4.84 19.12Q4.07 19.99 3.28 20.56L3.28 20.56L3.28 20.56Q2.49 21.13 1.86 21.13ZM13.99 11.86L13.99 11.86L14.01 11.56L14.01 11.56Q14.01 11.45 13.93 11.45L13.93 11.45L13.93 11.45Q13.80 11.45 13.42 11.82L13.42 11.82L13.42 11.82Q13.03 12.18 12.45 12.55L12.45 12.55L12.45 12.55Q11.87 12.92 11.29 12.92L11.29 12.92L11.29 12.92Q10.71 12.92 10.71 12.07L10.71 12.07L10.71 12.07Q10.71 11.00 11.63 9.62L11.63 9.62L11.63 9.62Q12.11 8.92 12.73 8.32L12.73 8.32L12.73 8.32Q13.36 7.73 14.25 7.34L14.25 7.34L14.25 7.34Q15.15 6.96 16.13 6.96L16.13 6.96L16.13 6.96Q16.65 6.96 17.01 7.23L17.01 7.23L17.01 7.23Q17.37 7.50 17.37 7.90L17.37 7.90L17.37 7.90Q17.37 8.30 17.14 8.30L17.14 8.30L17.14 8.30Q17.01 8.30 16.80 8.15L16.80 8.15L16.80 8.15Q16.41 7.88 15.57 7.88L15.57 7.88L15.57 7.88Q14.46 7.88 13.48 8.88L13.48 8.88L13.48 8.88Q12.49 9.88 12.49 10.86L12.49 10.86L12.49 10.86Q12.49 10.99 12.57 11.10L12.57 11.10L12.57 11.10Q12.64 11.21 12.78 11.21L12.78 11.21L12.78 11.21Q13.20 11.21 13.86 10.63L13.86 10.63L13.86 10.63Q14.52 10.05 15.15 8.96L15.15 8.96L15.15 8.96Q15.19 8.83 15.46 8.72L15.46 8.72L15.46 8.72Q15.72 8.61 16.09 8.61L16.09 8.61L16.09 8.61Q16.60 8.65 16.60 8.83L16.60 8.83L16.60 8.83Q16.60 8.85 16.50 9.01L16.50 9.01L16.50 9.01Q16.39 9.17 16.13 9.59L16.13 9.59L16.13 9.59Q15.86 10.01 15.38 10.97L15.38 10.97L15.38 10.97Q14.90 11.93 14.81 12.49L14.81 12.49L14.81 12.49Q14.80 12.66 14.67 12.66L14.67 12.66L14.67 12.66Q13.99 12.66 13.99 11.86ZM20.08 12.95L20.08 12.95L20.08 12.95Q19.68 12.95 19.68 12.77L19.68 12.77L19.71 12.68L19.71 12.68Q20.55 11.42 21.15 10.26L21.15 10.26L21.15 10.26Q21.76 9.09 21.76 8.74L21.76 8.74L21.76 8.74Q21.76 8.62 21.70 8.56L21.70 8.56L21.70 8.56Q21.64 8.50 21.53 8.48L21.53 8.48L21.53 8.48Q20.99 8.48 20.07 9.18L20.07 9.18L20.07 9.18Q19.15 9.88 18.46 10.63L18.46 10.63L18.46 10.63Q17.77 11.37 17.43 11.84L17.43 11.84L17.43 11.84Q17.09 12.31 16.42 12.31L16.42 12.31L16.42 12.31Q16.06 12.31 16.06 12.12L16.06 12.12L16.06 12.12Q16.06 11.76 17.43 9.55L17.43 9.55L17.43 9.55Q18.80 7.35 19.25 7.18L19.25 7.18L19.25 7.18Q19.49 7.04 19.86 7.04L19.86 7.04L19.86 7.04Q20.23 7.04 20.23 7.19L20.23 7.19L20.23 7.19Q20.23 7.34 19.89 7.83L19.89 7.83L19.89 7.83Q19.56 8.32 19.56 8.46L19.56 8.46L19.56 8.46Q19.59 8.57 19.68 8.57L19.68 8.57L19.68 8.57Q19.77 8.57 19.84 8.51L19.84 8.51L19.84 8.51Q21.91 6.90 23.14 6.90L23.14 6.90L23.14 6.90Q23.66 6.90 23.66 7.50L23.66 7.50L23.66 7.50Q23.66 7.90 23.08 9.20L23.08 9.20L23.08 9.20Q22.50 10.50 21.61 11.73L21.61 11.73L21.61 11.73Q20.72 12.95 20.08 12.95Z"></path></g><!----><!----></svg>